<?xml version="1.0" encoding="utf-8"?>
<!-- Generator: Adobe Illustrator 16.0.0, SVG Export Plug-In . SVG Version: 6.00 Build 0)  -->
<!DOCTYPE svg PUBLIC "-//W3C//DTD SVG 1.1//EN" "http://www.w3.org/Graphics/SVG/1.1/DTD/svg11.dtd">
<svg version="1.1" id="图层_1" xmlns="http://www.w3.org/2000/svg" xmlns:xlink="http://www.w3.org/1999/xlink" x="0px" y="0px"
	 width="128px" height="128px" viewBox="0 0 128 128" enable-background="new 0 0 128 128" xml:space="preserve">
<path opacity="0.2" fill="#3AA0FF" d="M64.019,0.019c-35.29,0-64,28.71-64,64c0,35.291,28.71,64,64,64s64-28.71,64-64
	C128.019,28.729,99.308,0.019,64.019,0.019z"/>
<path fill="#3AA0FF" d="M64.019,117.241c-29.347,0-53.223-23.876-53.223-53.223s23.875-53.222,53.223-53.222
	s53.223,23.875,53.223,53.222S93.366,117.241,64.019,117.241z"/>
<path fill="#FFFFFF" d="M40.639,91.799c-3.627,0-6.411-1.344-7.829-3.792c-1.419-2.441-1.197-5.51,0.617-8.645l23.379-40.307
	c1.815-3.135,4.376-4.854,7.213-4.854c2.832,0,5.398,1.727,7.213,4.854L94.61,79.362c1.814,3.135,2.037,6.203,0.616,8.645
	c-1.42,2.441-4.194,3.783-7.822,3.783L40.639,91.799z M64.12,38.337c-1.083,0-2.707,0.92-3.64,2.533L36.74,82.186
	c-0.933,1.612-1.161,3.077-0.617,4.012c0.545,0.936,1.928,1.47,3.793,1.47h47.708c1.872,0,3.507-0.534,4.045-1.47
	c0.545-0.938,0.315-2.399-0.617-4.012L67.556,40.87C66.617,39.258,65.204,38.337,64.12,38.337L64.12,38.337z"/>
<path fill="#FFFFFF" d="M64.019,51.82c-1.671,0-3.04,1.368-3.04,3.04l1.519,16.718c0,0.91,0.608,1.518,1.52,1.518
	c0.912,0,1.52-0.607,1.52-1.518l1.519-16.718C67.058,53.188,65.69,51.82,64.019,51.82L64.019,51.82z"/>
<path fill="#FFFFFF" d="M64.019,76.136c-1.671,0-3.04,1.369-3.04,3.042c0,1.67,1.368,3.039,3.04,3.039s3.04-1.369,3.04-3.039
	C67.058,77.505,65.69,76.136,64.019,76.136z"/>
</svg>
