<?xml version="1.0" encoding="utf-8"?>
<!-- Generator: Adobe Illustrator 16.0.0, SVG Export Plug-In . SVG Version: 6.00 Build 0)  -->
<!DOCTYPE svg PUBLIC "-//W3C//DTD SVG 1.1//EN" "http://www.w3.org/Graphics/SVG/1.1/DTD/svg11.dtd">
<svg version="1.1" id="图层_1" xmlns="http://www.w3.org/2000/svg" xmlns:xlink="http://www.w3.org/1999/xlink" x="0px" y="0px"
	 width="128px" height="128px" viewBox="0 0 128 128" enable-background="new 0 0 128 128" xml:space="preserve">
<path opacity="0.2" fill="#4ECB73" d="M64.019,0.019c-35.29,0-64,28.71-64,64c0,35.291,28.71,64,64,64s64-28.71,64-64
	C128.019,28.729,99.309,0.019,64.019,0.019z"/>
<path fill="#4ECB73" d="M64.019,117.241c-29.347,0-53.223-23.876-53.223-53.223s23.876-53.222,53.223-53.222
	s53.223,23.875,53.223,53.222S93.365,117.241,64.019,117.241z"/>
<path fill="#FFFFFF" d="M63.991,46.793c3.134-0.009,5.996-1.78,7.405-4.58c10.89,3.255,18.342,13.284,18.316,24.648
	c0,1.482,1.201,2.683,2.683,2.683c1.482,0,2.683-1.2,2.683-2.683c0.017-14.021-9.365-26.313-22.894-29.996
	c-0.871-4.531-5.248-7.499-9.778-6.63c-4.531,0.869-7.5,5.247-6.631,9.778C56.532,43.953,59.98,46.798,63.991,46.793z
	 M63.991,35.453c1.649,0,2.987,1.337,2.987,2.987c0,1.649-1.338,2.987-2.987,2.987s-2.988-1.338-2.988-2.987
	C61.003,36.79,62.342,35.453,63.991,35.453L63.991,35.453z M92.771,73.819c-3.999-2.28-9.089-0.887-11.369,3.112
	c-1.532,2.685-1.452,5.996,0.207,8.604c-8.237,7.771-20.592,9.225-30.406,3.579c-1.285-0.741-2.927-0.301-3.668,0.983
	c-0.741,1.283-0.3,2.926,0.983,3.666c1.866,1.077,3.839,1.958,5.885,2.629c3.084,1.01,6.308,1.523,9.552,1.522
	c8.218,0.018,16.113-3.195,21.983-8.944c4.372,1.472,9.11-0.878,10.583-5.25c1.262-3.744-0.273-7.86-3.679-9.866L92.771,73.819z
	 M91.18,82.549c-0.536,0.927-1.523,1.5-2.594,1.502c-0.521,0.004-1.033-0.133-1.484-0.393c-1.433-0.818-1.931-2.643-1.112-4.076
	c0.536-0.937,1.534-1.512,2.614-1.505c0.521-0.002,1.034,0.134,1.485,0.394C91.516,79.296,92.004,81.122,91.18,82.549L91.18,82.549z
	 M46.622,76.879c-1.491-2.592-4.254-4.188-7.243-4.185h-0.43c-2.594-11.035,2.357-22.464,12.181-28.12
	c1.285-0.741,1.725-2.382,0.984-3.667c-0.741-1.285-2.382-1.726-3.667-0.984C36.275,46.929,30.32,61.23,33.924,74.805
	c-3.488,3.021-3.864,8.296-0.844,11.782c3.021,3.488,8.297,3.864,11.783,0.843c3.028-2.624,3.768-7.028,1.759-10.498V76.879z
	 M40.881,83.641c-1.427,0.822-3.252,0.335-4.078-1.092c-0.861-1.407-0.418-3.245,0.988-4.107c0.034-0.02,0.068-0.04,0.104-0.06
	c1.427-0.824,3.253-0.336,4.078,1.09c0.869,1.404,0.436,3.244-0.968,4.113c-0.04,0.025-0.081,0.049-0.124,0.073V83.641z"/>
</svg>
