<?xml version="1.0" encoding="utf-8"?>
<!-- Generator: Adobe Illustrator 16.0.0, SVG Export Plug-In . SVG Version: 6.00 Build 0)  -->
<!DOCTYPE svg PUBLIC "-//W3C//DTD SVG 1.1//EN" "http://www.w3.org/Graphics/SVG/1.1/DTD/svg11.dtd">
<svg version="1.1" id="图层_1" xmlns="http://www.w3.org/2000/svg" xmlns:xlink="http://www.w3.org/1999/xlink" x="0px" y="0px"
	 width="128px" height="128px" viewBox="0 0 128 128" enable-background="new 0 0 128 128" xml:space="preserve">
<path opacity="0.2" fill="#56DBB7" d="M64.019,0.019c-35.29,0-64,28.71-64,64c0,35.291,28.71,64,64,64s64-28.71,64-64
	C128.019,28.729,99.309,0.019,64.019,0.019z"/>
<path fill="#56DBB7" d="M64.019,117.241c-29.347,0-53.223-23.876-53.223-53.223s23.876-53.222,53.223-53.222
	s53.223,23.875,53.223,53.222S93.365,117.241,64.019,117.241z"/>
<path fill="#FFFFFF" d="M87.641,96.436c-0.316,0-0.631,0-0.944-0.158l-6.924-3.147c-5.349-2.518-10.699-3.618-15.891-3.461
	c-1.889,0-3.776,0-5.664-0.314c-8.182-1.259-15.42-6.137-19.825-13.058c-4.563-7.081-5.821-15.42-3.461-23.602
	C38.55,39.637,50.98,30.668,64.354,31.455c8.339,0.473,16.207,4.406,21.398,10.856c5.191,6.451,7.394,14.948,6.136,23.13
	c-0.158,1.101-0.473,2.202-0.788,3.303c-1.73,6.138-2.202,13.218-1.572,20.769l0.472,4.878c0.157,0.786-0.315,1.731-0.943,2.202
	C88.583,96.277,88.111,96.436,87.641,96.436z M64.668,84.794c5.508,0,11.172,1.256,16.993,3.932l3.147,1.416v-0.787
	c-0.788-8.181-0.315-15.733,1.729-22.498c0.314-0.945,0.473-1.889,0.631-2.833c1.1-6.923-0.786-13.845-5.191-19.353
	c-4.407-5.506-10.857-8.653-17.938-9.125c-11.327-0.314-21.712,7.238-24.701,18.094c-1.889,6.922-0.788,13.846,2.989,19.824
	c3.775,5.821,9.755,9.914,16.677,11.014c1.573,0.316,3.146,0.316,4.72,0.316H64.668z"/>
<path fill="#FFFFFF" d="M69.86,48.604c-1.416-1.259-3.462-2.045-5.821-2.045c-2.675,0-4.878,0.786-6.451,2.359
	c-1.102,1.102-1.731,2.36-2.045,4.091c-0.156,0.629,0,1.416,0.471,1.888c0.473,0.473,1.102,0.787,1.731,0.787
	c1.103,0,2.046-0.787,2.203-1.888c0.157-0.787,0.315-1.416,0.786-1.888c0.63-0.944,1.731-1.416,3.147-1.416
	c1.258,0,2.046,0.315,2.674,0.944c0.629,0.629,0.944,1.574,0.944,2.675c0,0.787-0.315,1.573-0.944,2.36l-0.628,0.629
	c-2.361,2.045-3.62,3.461-4.092,4.563c-0.472,0.944-0.786,2.203-0.786,3.619v0.944h4.563v-0.944c0-0.787,0.156-1.574,0.472-2.203
	c0.314-0.629,0.787-1.259,1.416-1.73c1.73-1.574,2.676-2.36,2.989-2.833c0.944-1.258,1.416-2.832,1.416-4.563
	C72.063,51.751,71.276,49.863,69.86,48.604z M63.409,70.159c-0.943,0-1.573,0.315-2.045,0.786c-0.63,0.473-0.944,1.26-0.944,2.046
	s0.314,1.575,0.787,2.046c0.629,0.63,1.259,0.786,2.202,0.786c0.787,0,1.573-0.314,2.203-0.786c0.629-0.63,0.943-1.26,0.943-2.202
	c0-0.944-0.314-1.574-0.943-2.046C64.982,70.475,64.354,70.159,63.409,70.159z"/>
<path fill="#FFFFFF" d="M62.135,66.13c0,1.246,1.011,2.257,2.257,2.257c1.247,0,2.257-1.011,2.257-2.257
	c0-1.247-1.01-2.258-2.257-2.258C63.146,63.872,62.135,64.883,62.135,66.13z"/>
</svg>
