<?xml version="1.0" encoding="utf-8"?>
<!-- Generator: Adobe Illustrator 16.0.0, SVG Export Plug-In . SVG Version: 6.00 Build 0)  -->
<!DOCTYPE svg PUBLIC "-//W3C//DTD SVG 1.1//EN" "http://www.w3.org/Graphics/SVG/1.1/DTD/svg11.dtd">
<svg version="1.1" id="图层_1" xmlns="http://www.w3.org/2000/svg" xmlns:xlink="http://www.w3.org/1999/xlink" x="0px" y="0px"
	 width="128px" height="128px" viewBox="0 0 128 128" enable-background="new 0 0 128 128" xml:space="preserve">
<path opacity="0.2" fill="#FAD337" d="M64.019,0.019c-35.29,0-64,28.71-64,64c0,35.291,28.71,64,64,64s64-28.71,64-64
	C128.019,28.729,99.308,0.019,64.019,0.019z"/>
<path fill="#FFFFFF" d="M64.019,117.241c-29.347,0-53.223-23.876-53.223-53.223s23.875-53.222,53.223-53.222
	s53.223,23.875,53.223,53.222S93.366,117.241,64.019,117.241z"/>
<path fill="#FAD337" d="M64.019,117.241c-29.347,0-53.223-23.876-53.223-53.223s23.875-53.222,53.223-53.222
	s53.223,23.875,53.223,53.222S93.366,117.241,64.019,117.241z"/>
<g>
	<path fill="#FFFFFF" d="M33.723,45.921c0.13-0.008,0.251-0.017,0.381-0.017h5.056c0.51,0,0.978,0.147,1.376,0.571
		c0.294,0.32,0.52,0.728,0.528,1.212c0.026,1.982,0.018,3.964,0.018,5.938c0,0.017-0.008,0.035-0.018,0.078
		c-0.069,0.008-0.155,0.017-0.233,0.017h-6.787c-0.104,0-0.208-0.017-0.312-0.035C33.723,51.107,33.723,48.518,33.723,45.921z
		 M93.603,53.747c0.017,0.13,0.043,0.259,0.061,0.389c0.13,0.944,0.269,1.896,0.398,2.84c0.311,2.337,0.242,4.692,0.069,7.038
		c-0.052,0.719-0.147,1.429-0.268,2.138c-0.156,0.919-0.32,1.836-0.537,2.736c-0.234,0.944-0.502,1.879-0.797,2.797
		c-0.234,0.736-0.51,1.462-0.805,2.164c-0.32,0.762-0.666,1.505-1.039,2.224c-0.424,0.807-0.857,1.603-1.342,2.356
		c-0.537,0.848-1.125,1.645-1.705,2.441c-0.294,0.406-0.606,0.778-0.9,1.143c0.225,0.318,0.433,0.631,0.658,0.908
		c0.416,0.511,0.831,1.004,1.255,1.506c0.389,0.468,0.796,0.919,1.186,1.387c0.398,0.475,0.796,0.951,1.186,1.436
		c0.208,0.26,0.424,0.511,0.598,0.806c0.173,0.312,0.346,0.649,0.441,1.014c0.199,0.77,0.182,1.557-0.043,2.311
		c-0.199,0.675-0.581,1.195-1.022,1.628c-0.563,0.562-1.168,0.995-1.878,1.159c-1.212,0.276-2.337,0.009-3.325-0.961
		c-0.415-0.407-0.779-0.917-1.168-1.377c-0.494-0.579-0.987-1.159-1.472-1.739c-0.389-0.458-0.77-0.926-1.151-1.394
		c-0.312-0.373-0.606-0.763-0.926-1.126c-0.043-0.051-0.165-0.051-0.233-0.017c-0.883,0.553-1.758,1.151-2.658,1.679
		c-1.307,0.771-2.666,1.386-4.043,1.905c-2.337,0.882-4.718,1.438-7.142,1.688c-2.571,0.268-5.133,0.198-7.696-0.234
		c-2.051-0.346-4.068-0.908-6.042-1.705c-1.376-0.555-2.728-1.23-4.043-2.009c-1.368-0.813-2.701-1.731-3.956-2.813
		c-0.97-0.841-1.905-1.75-2.805-2.702c-0.745-0.787-1.446-1.645-2.121-2.528c-0.581-0.752-1.108-1.558-1.627-2.38
		c-0.468-0.735-0.901-1.516-1.308-2.304c-0.389-0.753-0.745-1.532-1.082-2.328c-0.303-0.71-0.571-1.445-0.822-2.19
		c-0.277-0.849-0.545-1.714-0.762-2.597c-0.217-0.883-0.398-1.783-0.554-2.692c-0.121-0.684-0.182-1.385-0.286-2.069
		c-0.043-0.32-0.095-0.606-0.009-0.953c0.243-0.987,0.814-1.385,1.541-1.497c0.337-0.052,0.675-0.018,1.013-0.018h4.657
		c0.035,0.52,0.053,1.021,0.113,1.515c0.095,0.762,0.182,1.524,0.329,2.268c0.139,0.746,0.32,1.481,0.528,2.19
		c0.243,0.813,0.511,1.61,0.814,2.382c0.312,0.778,0.649,1.541,1.039,2.26c0.51,0.934,1.039,1.852,1.627,2.709
		c0.563,0.822,1.186,1.576,1.817,2.312c0.78,0.899,1.61,1.73,2.511,2.423c0.918,0.702,1.835,1.396,2.788,2.018
		c1.221,0.788,2.501,1.377,3.818,1.861c2.173,0.806,4.397,1.246,6.657,1.334c1.749,0.068,3.489-0.078,5.211-0.434
		c1.506-0.312,2.987-0.787,4.424-1.428c1.255-0.563,2.484-1.203,3.627-2.062c0.953-0.718,1.896-1.463,2.796-2.268
		c0.606-0.546,1.169-1.177,1.714-1.827c0.615-0.736,1.195-1.515,1.758-2.303c0.329-0.458,0.623-0.97,0.9-1.488
		c0.424-0.78,0.831-1.576,1.212-2.391c0.242-0.519,0.441-1.081,0.632-1.645c0.269-0.813,0.528-1.635,0.744-2.475
		c0.174-0.667,0.295-1.351,0.39-2.043c0.122-0.857,0.208-1.731,0.277-2.597c0.052-0.718,0.104-1.446,0.069-2.164
		c-0.043-1.03-0.165-2.052-0.259-3.073c-0.017-0.226-0.087-0.441-0.13-0.667c-0.286-1.394,0.528-2.337,1.455-2.494
		c0.069-0.008,0.138-0.017,0.199-0.017h5.324C93.525,53.729,93.559,53.739,93.603,53.747L93.603,53.747z"/>
	<path fill="#FFFFFF" d="M53.66,73.909c-0.675,0-1.351-0.009-2.026,0c-0.155,0-0.233-0.051-0.286-0.261
		c-0.294-1.029-0.615-2.052-0.917-3.072c-0.173-0.571-0.355-1.134-0.528-1.705c-0.26-0.831-0.52-1.662-0.779-2.503
		c-0.173-0.563-0.347-1.134-0.528-1.705c-0.277-0.9-0.554-1.792-0.832-2.692c-0.173-0.571-0.346-1.134-0.528-1.706l-0.779-2.493
		c-0.268-0.865-0.545-1.731-0.796-2.614c-0.156-0.545-0.312-1.099-0.381-1.662c-0.078-0.641,0.129-1.238,0.347-1.818
		c0.121-0.321,0.216-0.649,0.32-0.979c0.138-0.441,0.259-0.9,0.407-1.333c0.286-0.857,0.58-1.706,0.874-2.563
		c0.121-0.372,0.226-0.744,0.347-1.117c0.242-0.745,0.493-1.489,0.744-2.243c0.095-0.286,0.191-0.58,0.277-0.874
		c0.216-0.684,0.432-1.368,0.649-2.042c0.268-0.849,0.545-1.688,0.822-2.537c0.26-0.813,0.528-1.619,0.788-2.433
		c0.174-0.545,0.347-1.09,0.538-1.636c0.025-0.078,0.146-0.138,0.225-0.146c0.961-0.009,1.921-0.009,2.891-0.009
		c0.364,0,0.719,0.009,1.083,0c0.606-0.008,1.134,0.26,1.498,0.866c0.268,0.45,0.424,0.97,0.216,1.584
		c-0.259,0.753-0.476,1.523-0.719,2.286c-0.268,0.84-0.545,1.67-0.813,2.51c-0.251,0.779-0.511,1.567-0.762,2.346
		c-0.269,0.832-0.545,1.671-0.813,2.511c-0.269,0.832-0.537,1.654-0.805,2.484c-0.269,0.84-0.537,1.671-0.814,2.511
		c-0.19,0.588-0.416,1.16-0.597,1.749c-0.173,0.537-0.165,1.065,0.06,1.584c0.113,0.259,0.182,0.545,0.269,0.813
		c0.234,0.779,0.458,1.558,0.692,2.337c0.269,0.892,0.546,1.775,0.822,2.667c0.174,0.571,0.347,1.134,0.528,1.706
		c0.26,0.831,0.52,1.662,0.78,2.502c0.181,0.58,0.363,1.151,0.537,1.731c0.277,0.883,0.545,1.775,0.822,2.667
		c0.181,0.579,0.355,1.15,0.537,1.73c0.121,0.373,0.25,0.728,0.372,1.101c0.147,0.44-0.035,1.332-0.312,1.688
		c-0.441,0.569-0.978,0.786-1.584,0.77C54.863,73.9,54.266,73.909,53.66,73.909L53.66,73.909z M66.091,73.909
		c-0.675,0-1.35-0.009-2.026,0c-0.156,0-0.233-0.061-0.294-0.261c-0.286-0.916-0.598-1.825-0.892-2.743
		c-0.104-0.313-0.191-0.624-0.286-0.936c-0.234-0.753-0.459-1.515-0.693-2.269c-0.269-0.873-0.554-1.757-0.831-2.631
		c-0.251-0.788-0.502-1.567-0.753-2.355c-0.277-0.866-0.545-1.731-0.822-2.597c-0.173-0.545-0.347-1.099-0.52-1.645
		c-0.277-0.874-0.554-1.749-0.831-2.632c-0.19-0.615-0.424-1.221-0.571-1.861c-0.104-0.45-0.104-0.944,0.052-1.411
		c0.234-0.719,0.442-1.463,0.675-2.182c0.269-0.831,0.546-1.653,0.823-2.476c0.181-0.537,0.354-1.065,0.537-1.602
		c0.268-0.813,0.545-1.636,0.813-2.45c0.251-0.762,0.51-1.524,0.771-2.286c0.268-0.805,0.537-1.61,0.805-2.424
		c0.268-0.813,0.545-1.636,0.814-2.45c0.251-0.762,0.51-1.524,0.771-2.286c0.06-0.173,0.112-0.354,0.19-0.511
		c0.035-0.061,0.113-0.121,0.173-0.121c1.376,0,2.752-0.018,4.129,0.009c0.727,0.008,1.419,0.641,1.576,1.394
		c0.112,0.528,0.052,1.039-0.165,1.532c-0.121,0.277-0.208,0.589-0.303,0.892c-0.216,0.676-0.433,1.342-0.649,2.018
		c-0.277,0.831-0.554,1.671-0.831,2.501c-0.26,0.788-0.528,1.576-0.788,2.363l-0.779,2.337c-0.269,0.796-0.537,1.593-0.796,2.389
		c-0.277,0.823-0.545,1.654-0.822,2.476c-0.121,0.346-0.269,0.675-0.363,1.03c-0.13,0.458-0.139,0.909,0.06,1.359
		c0.13,0.294,0.208,0.632,0.303,0.953c0.233,0.753,0.459,1.515,0.692,2.268c0.269,0.866,0.545,1.732,0.823,2.597
		c0.251,0.788,0.502,1.567,0.753,2.355c0.277,0.865,0.545,1.731,0.822,2.597l0.805,2.545l0.779,2.441
		c0.156,0.493,0.329,0.978,0.477,1.479c0.121,0.416,0.138,0.866-0.009,1.273c-0.277,0.822-0.822,1.211-1.489,1.255
		c-0.701,0.052-1.411,0.01-2.121,0.01C66.091,73.9,66.091,73.9,66.091,73.909L66.091,73.909z"/>
	<path fill="#FFFFFF" d="M78.34,73.909c-0.684,0-1.368-0.009-2.051,0.009c-0.139,0-0.191-0.06-0.243-0.216
		c-0.277-0.885-0.563-1.767-0.849-2.649c-0.25-0.771-0.511-1.551-0.762-2.321c-0.277-0.839-0.545-1.671-0.814-2.509
		c-0.269-0.832-0.537-1.654-0.805-2.485c-0.268-0.84-0.537-1.68-0.813-2.511c-0.26-0.796-0.52-1.584-0.779-2.372
		c-0.269-0.823-0.528-1.637-0.796-2.459c-0.216-0.649-0.476-1.272-0.64-1.939c-0.199-0.779-0.217-1.584,0.078-2.363
		c0.104-0.286,0.199-0.58,0.286-0.865c0.225-0.71,0.441-1.42,0.684-2.121c0.303-0.909,0.624-1.81,0.935-2.718
		c0.113-0.329,0.217-0.675,0.32-1.004c0.295-0.909,0.589-1.818,0.892-2.718c0.174-0.519,0.347-1.03,0.52-1.549
		c0.277-0.831,0.545-1.671,0.831-2.502l0.753-2.233c0.269-0.805,0.528-1.619,0.813-2.416c0.026-0.086,0.165-0.147,0.251-0.147
		c1.299-0.009,2.606-0.018,3.904,0c0.234,0,0.485,0.043,0.71,0.139c0.675,0.277,1.168,1.047,1.116,1.896
		c-0.025,0.354-0.156,0.701-0.259,1.03c-0.113,0.355-0.251,0.684-0.373,1.039c-0.139,0.407-0.251,0.822-0.39,1.221
		c-0.303,0.882-0.606,1.757-0.909,2.64c-0.096,0.286-0.19,0.58-0.286,0.874c-0.234,0.728-0.459,1.455-0.702,2.173
		c-0.268,0.831-0.545,1.653-0.822,2.476c-0.251,0.753-0.51,1.506-0.762,2.26c-0.276,0.813-0.545,1.627-0.813,2.45
		c-0.112,0.346-0.259,0.692-0.337,1.056c-0.043,0.199-0.017,0.45,0.035,0.667c0.078,0.346,0.199,0.675,0.303,1.013
		c0.225,0.727,0.441,1.463,0.684,2.181c0.286,0.875,0.589,1.749,0.883,2.615c0.104,0.294,0.19,0.597,0.286,0.9
		c0.225,0.727,0.45,1.463,0.684,2.181c0.277,0.857,0.554,1.714,0.831,2.563c0.251,0.762,0.502,1.533,0.753,2.294
		c0.277,0.85,0.545,1.697,0.822,2.536c0.121,0.382,0.269,0.745,0.39,1.117c0.433,1.359-0.147,2.381-1.143,2.71
		c-0.182,0.061-0.372,0.069-0.554,0.077C79.569,73.909,78.955,73.909,78.34,73.909L78.34,73.909z"/>
</g>
</svg>
